<?xml version="1.0" standalone="no"?>
<!DOCTYPE svg PUBLIC "-//W3C//DTD SVG 20010904//EN"
 "http://www.w3.org/TR/2001/REC-SVG-20010904/DTD/svg10.dtd">
<svg version="1.0" xmlns="http://www.w3.org/2000/svg"
 width="1920.000000pt" height="1920.000000pt" viewBox="0 0 1920.000000 1920.000000"
 preserveAspectRatio="xMidYMid meet">
<metadata>
Created by potrace 1.14, written by Peter Selinger 2001-2017
</metadata>
<g transform="translate(0.000000,1920.000000) scale(0.100000,-0.100000)"
fill="#000000" stroke="none">
<path d="M9238 19195 c-2 -2 -66 -6 -143 -9 -77 -3 -162 -8 -190 -11 -27 -2
-84 -7 -125 -10 -114 -10 -161 -14 -205 -19 -22 -3 -67 -8 -100 -11 -33 -4
-72 -8 -86 -11 -15 -2 -47 -6 -70 -9 -24 -3 -55 -7 -69 -10 -14 -3 -45 -7 -70
-10 -48 -6 -108 -16 -275 -46 -106 -19 -408 -80 -470 -95 -33 -8 -85 -21 -115
-28 -1174 -279 -2411 -858 -3405 -1596 -126 -93 -362 -276 -375 -290 -3 -3
-30 -25 -60 -50 -30 -25 -60 -49 -66 -55 -6 -5 -33 -28 -59 -50 -27 -22 -56
-47 -64 -55 -9 -9 -56 -52 -105 -95 -230 -204 -528 -502 -726 -726 -41 -46
-77 -86 -80 -89 -3 -3 -30 -34 -60 -70 -30 -36 -58 -67 -61 -70 -3 -3 -48 -57
-100 -120 -199 -243 -504 -665 -653 -903 -74 -119 -180 -292 -214 -352 -225
-392 -372 -688 -532 -1066 -45 -107 -85 -203 -90 -214 -107 -252 -307 -873
-384 -1195 -8 -36 -27 -114 -41 -175 -15 -60 -29 -121 -31 -135 -3 -14 -7 -32
-9 -40 -2 -8 -7 -29 -9 -46 -3 -17 -13 -66 -21 -110 -24 -120 -32 -161 -50
-271 -15 -92 -47 -315 -50 -348 -3 -33 -15 -137 -21 -180 -6 -53 -12 -112 -20
-215 -3 -47 -7 -101 -9 -120 -27 -274 -27 -1147 0 -1375 2 -22 7 -76 10 -120
6 -88 23 -260 30 -315 5 -40 13 -106 21 -170 2 -25 7 -52 9 -60 2 -8 7 -40 10
-70 3 -30 8 -62 10 -70 2 -8 6 -33 10 -55 13 -95 54 -313 84 -450 5 -22 16
-74 25 -115 8 -41 20 -91 26 -110 6 -19 13 -48 16 -65 5 -30 35 -143 60 -231
8 -28 16 -60 19 -70 29 -141 227 -721 340 -999 146 -359 368 -818 543 -1124
52 -91 101 -177 109 -191 34 -63 243 -386 340 -527 60 -85 115 -165 123 -177
27 -40 224 -301 237 -314 7 -8 26 -30 41 -50 31 -42 40 -53 118 -147 33 -38
68 -81 79 -94 117 -141 355 -398 528 -571 174 -174 264 -259 464 -437 156
-139 492 -408 653 -523 41 -30 77 -57 80 -60 7 -7 46 -34 201 -139 159 -108
151 -103 214 -143 28 -17 69 -44 93 -60 24 -15 45 -28 46 -28 2 0 53 -30 112
-67 193 -118 403 -231 679 -368 391 -193 665 -310 1030 -440 144 -51 417 -141
455 -150 8 -2 47 -13 85 -25 39 -12 77 -23 85 -25 8 -2 56 -14 105 -28 50 -14
104 -28 120 -32 38 -9 47 -11 125 -31 93 -23 248 -57 320 -70 14 -2 45 -9 70
-14 25 -5 60 -12 79 -15 19 -3 37 -7 40 -9 3 -2 31 -7 61 -11 30 -3 62 -8 70
-10 8 -2 35 -7 60 -10 24 -4 47 -8 50 -10 3 -2 32 -6 65 -9 33 -4 69 -9 80
-11 18 -4 81 -13 145 -20 14 -2 45 -5 70 -8 25 -3 77 -9 115 -12 39 -4 81 -8
95 -11 14 -2 61 -6 105 -9 44 -3 102 -8 129 -10 292 -27 1062 -27 1376 0 25 2
83 6 130 10 47 3 96 8 110 10 14 2 56 6 93 10 37 3 76 8 85 10 9 1 49 6 87 9
39 4 82 9 98 12 15 2 39 6 55 8 15 3 47 8 72 11 98 13 351 57 460 80 63 13
126 26 140 29 30 5 166 37 310 72 332 81 961 283 1195 384 11 5 107 45 214 90
334 142 776 359 986 487 11 7 27 15 35 19 110 54 672 417 873 564 107 79 370
282 412 318 38 33 61 52 145 121 101 84 300 262 423 380 311 298 669 687 862
936 17 21 42 52 56 69 140 164 464 629 641 918 65 106 122 200 128 208 42 67
155 279 269 505 159 315 196 394 286 610 36 88 70 169 75 180 103 242 338 971
376 1168 2 11 8 34 13 51 13 45 79 335 95 421 19 97 66 366 71 400 4 22 12 81
20 130 7 50 17 119 21 155 4 36 8 72 9 80 1 8 5 49 9 90 4 41 9 86 11 100 2
14 7 66 11 115 3 50 8 108 10 130 26 295 26 1107 -1 1373 -2 26 -7 79 -10 117
-7 89 -24 270 -30 315 -3 19 -7 53 -9 75 -3 22 -10 73 -16 113 -5 40 -12 94
-15 120 -3 26 -8 54 -10 62 -2 8 -7 34 -10 58 -20 145 -90 492 -135 672 -26
106 -29 118 -36 154 -2 16 -7 33 -10 38 -3 5 -7 18 -10 31 -2 12 -31 114 -64
227 -33 113 -62 213 -65 222 -2 10 -13 44 -24 75 -11 32 -41 119 -67 193 -25
74 -57 164 -71 200 -60 158 -117 300 -144 358 -16 35 -29 67 -29 71 0 4 -8 25
-19 47 -10 21 -42 91 -71 154 -283 623 -662 1254 -1093 1820 -99 130 -183 236
-197 250 -3 3 -25 30 -50 60 -254 311 -679 754 -964 1005 -37 33 -82 73 -99
89 -28 25 -366 307 -407 339 -8 7 -60 46 -115 87 -55 41 -102 78 -105 81 -3 3
-27 21 -54 40 -27 19 -67 47 -90 63 -128 90 -182 127 -286 196 -138 91 -194
127 -278 177 -35 21 -76 45 -90 54 -219 135 -623 347 -922 483 -80 37 -153 71
-162 76 -10 6 -22 10 -28 10 -5 0 -33 11 -62 24 -131 61 -454 184 -693 264
-391 132 -813 241 -1260 327 -63 12 -312 54 -355 60 -25 3 -70 10 -100 15 -30
5 -80 12 -110 15 -30 3 -71 7 -90 10 -62 8 -124 15 -185 20 -33 3 -78 7 -100
9 -22 2 -89 7 -150 11 -60 4 -130 9 -155 11 -51 6 -887 14 -892 9z m642 -1460
c266 -9 310 -12 495 -30 22 -2 69 -7 105 -10 36 -3 76 -8 90 -10 14 -2 50 -7
80 -10 30 -3 66 -8 80 -10 14 -3 41 -7 60 -9 429 -53 1096 -220 1595 -401 370
-134 901 -375 1153 -524 29 -17 55 -31 58 -31 11 0 373 -222 506 -311 667
-445 1273 -989 1760 -1579 118 -144 149 -183 203 -255 33 -44 62 -82 65 -85 3
-3 28 -36 55 -75 27 -38 52 -72 55 -75 13 -11 230 -339 230 -349 0 -5 4 -11 8
-13 4 -1 17 -19 29 -38 11 -19 46 -78 78 -130 223 -366 473 -879 615 -1260 17
-47 38 -101 45 -120 55 -136 206 -621 240 -770 2 -8 13 -53 25 -100 21 -86 27
-112 74 -340 34 -170 63 -339 82 -495 3 -22 7 -47 9 -55 2 -8 7 -53 11 -100 3
-47 8 -87 9 -90 3 -4 6 -34 20 -200 27 -315 27 -1157 0 -1323 -2 -12 -6 -58
-10 -102 -3 -44 -8 -93 -10 -110 -3 -16 -7 -50 -9 -75 -7 -64 -45 -340 -51
-370 -3 -14 -10 -54 -15 -90 -75 -476 -260 -1122 -468 -1640 -265 -660 -611
-1270 -1045 -1849 -77 -102 -143 -188 -146 -191 -4 -3 -33 -37 -64 -77 -32
-40 -67 -83 -80 -97 -12 -13 -31 -35 -41 -48 -211 -258 -718 -754 -994 -973
-14 -11 -43 -35 -66 -54 -235 -194 -600 -450 -891 -626 -71 -43 -141 -85 -155
-93 -14 -9 -25 -14 -25 -11 0 2 -13 -6 -30 -17 -42 -30 -293 -163 -460 -244
-387 -188 -769 -335 -1255 -485 -84 -25 -497 -130 -555 -141 -16 -3 -50 -10
-75 -15 -25 -6 -56 -13 -70 -15 -242 -44 -323 -57 -410 -69 -25 -3 -70 -10
-100 -15 -30 -5 -86 -12 -125 -16 -38 -3 -77 -7 -85 -9 -8 -2 -55 -6 -105 -10
-49 -4 -100 -8 -111 -10 -22 -3 -218 -16 -329 -21 -94 -4 -580 -4 -680 1 -113
5 -255 14 -320 20 -27 3 -77 7 -110 10 -33 3 -85 8 -115 10 -30 3 -68 7 -85
10 -16 2 -52 7 -80 11 -27 3 -57 8 -65 9 -9 2 -43 6 -75 10 -33 4 -69 9 -80
11 -11 3 -58 11 -105 19 -161 27 -245 43 -365 70 -66 15 -126 28 -135 30 -46
9 -269 68 -360 95 -58 17 -114 33 -124 35 -106 24 -676 232 -858 313 -24 11
-65 29 -92 41 -319 139 -735 362 -1059 568 -265 169 -617 424 -787 570 -14 12
-59 50 -100 84 -320 264 -790 741 -1023 1034 -8 11 -40 49 -69 85 -29 36 -80
101 -113 145 -33 44 -62 82 -65 85 -3 3 -28 37 -55 75 -27 39 -52 72 -55 75
-13 11 -230 339 -230 349 0 5 -4 11 -8 13 -4 2 -17 19 -29 38 -11 19 -46 77
-78 129 -220 364 -465 865 -607 1241 -22 58 -43 114 -48 125 -67 152 -253 786
-305 1035 -73 355 -91 459 -120 675 -3 22 -7 51 -10 65 -2 14 -7 57 -11 95 -3
39 -7 77 -9 85 -7 35 -20 197 -32 395 -16 244 -8 976 12 1140 2 17 7 68 11
115 3 47 8 92 9 100 3 18 13 96 20 170 4 30 8 66 10 80 2 14 11 72 20 130 19
123 21 132 30 185 4 22 9 47 10 55 2 8 12 60 24 115 11 55 23 114 25 130 13
75 130 516 176 665 109 349 250 718 376 985 21 44 38 82 39 85 2 11 127 260
178 355 182 342 411 703 642 1013 58 79 110 149 116 155 5 7 44 55 85 107 42
52 97 119 123 149 25 29 54 63 64 75 243 283 547 584 883 875 94 82 333 268
479 375 88 63 165 119 170 123 6 5 80 54 165 109 788 514 1620 874 2525 1095
66 16 131 31 145 34 14 3 40 9 58 14 18 5 36 10 40 10 15 2 80 13 152 27 132
27 258 48 350 59 30 4 62 8 70 10 27 4 104 14 150 19 25 3 68 8 95 11 87 11
106 13 355 31 25 2 164 6 310 10 146 3 267 8 269 10 2 2 7 2 10 0 3 -2 98 -7
211 -11z"/>
<path d="M13820 13594 c-75 -17 -140 -48 -197 -91 -26 -20 -1184 -1172 -2572
-2560 -1388 -1387 -2525 -2523 -2527 -2523 -2 0 -661 657 -1465 1460 -1370
1371 -1535 1530 -1582 1530 -7 0 -17 4 -23 9 -20 18 -112 35 -190 34 -102 0
-202 -29 -280 -82 -31 -21 -223 -204 -425 -406 -340 -339 -370 -373 -407 -444
-92 -181 -77 -394 40 -551 10 -14 989 -996 2175 -2183 l2157 -2158 3247 3248
c2900 2900 3250 3254 3277 3308 43 89 57 150 57 250 0 122 -32 220 -102 313
-24 32 -687 697 -736 739 -117 99 -299 143 -447 107z"/>
</g>
</svg>
